<svg width="620" height="158" viewBox="0 0 620 158" fill="none" xmlns="http://www.w3.org/2000/svg">
<path d="M49.8 103.75C51 103.75 51.6 104.225 51.6 105.175V105.475C51.6 106.075 51.025 107 49.875 108.25C48.775 109.45 48.225 110.675 48.225 111.925V153.475C48.225 155.825 47.075 157 44.775 157H40.5C39.05 157 37.725 156.175 36.525 154.525L9.825 119.125V148.75C9.825 150 10.4 151.25 11.55 152.5C12.75 153.75 13.35 154.675 13.35 155.275V155.575C13.35 156.525 12.725 157 11.475 157H1.875C0.675 157 0.0750001 156.525 0.0750001 155.575V155.275C0.0750001 154.675 0.575 153.75 1.575 152.5C2.575 151.25 3.075 150 3.075 148.75V112C3.075 110.75 2.575 109.5 1.575 108.25C0.575 107 0.0750001 106.075 0.0750001 105.475V105.175C0.0750001 104.225 0.675 103.75 1.875 103.75H19.5C20.65 103.75 21.225 104.225 21.225 105.175V105.475C21.225 105.775 21.025 106.175 20.625 106.675C20.275 107.175 19.925 107.65 19.575 108.1C19.225 108.55 19 109.125 18.9 109.825C18.85 110.525 19.15 111.25 19.8 112L41.475 141.1V111.925C41.475 110.675 40.925 109.45 39.825 108.25C38.725 107 38.175 106.075 38.175 105.475V105.175C38.175 104.225 38.775 103.75 39.975 103.75H49.8ZM58.7842 157C57.5842 157 56.9842 156.525 56.9842 155.575V155.275C56.9842 154.675 57.4842 153.775 58.4842 152.575C59.4842 151.325 59.9842 150.075 59.9842 148.825V111.925C59.9842 110.675 59.4842 109.45 58.4842 108.25C57.4842 107 56.9842 106.075 56.9842 105.475V105.175C56.9842 104.225 57.5592 103.75 58.7092 103.75H93.9592C94.7592 103.75 95.3342 103.95 95.6842 104.35C96.0842 104.7 96.3592 105.3 96.5092 106.15L98.3092 115.6C98.4092 116.25 98.2842 116.775 97.9342 117.175C97.5842 117.575 97.0842 117.775 96.4342 117.775H96.0592C95.1092 117.775 94.1342 117.325 93.1342 116.425C92.1842 115.475 91.3342 114.475 90.5842 113.425C89.8842 112.325 88.9592 111.325 87.8092 110.425C86.7092 109.475 85.5592 109 84.3592 109H77.1592C74.8592 109 73.7092 110.2 73.7092 112.6V129.4H82.1092C82.9092 129.4 83.6342 129.1 84.2842 128.5C84.9842 127.85 85.5342 127.15 85.9342 126.4C86.3342 125.6 86.7842 124.9 87.2842 124.3C87.8342 123.65 88.3342 123.325 88.7842 123.325H89.4592C90.4092 123.325 90.8842 123.9 90.8842 125.05V138.55C90.8842 139.7 90.4092 140.275 89.4592 140.275H88.7842C88.1842 140.275 87.5592 139.825 86.9092 138.925C86.3092 137.975 85.6092 137.025 84.8092 136.075C84.0092 135.125 83.1092 134.65 82.1092 134.65H73.7092V148.825C73.7092 150.075 74.2592 151.325 75.3592 152.575C76.5092 153.775 77.0842 154.675 77.0842 155.275V155.575C77.0842 156.525 76.4842 157 75.2842 157H58.7842ZM114.85 157C113.7 157 113.125 156.525 113.125 155.575V155.275C113.125 154.675 113.65 153.775 114.7 152.575C115.8 151.325 116.35 150.075 116.35 148.825V109.375H112.375C111.225 109.375 110.175 109.85 109.225 110.8C108.325 111.75 107.6 112.8 107.05 113.95C106.55 115.05 105.925 116.075 105.175 117.025C104.425 117.975 103.675 118.45 102.925 118.45H101.65C100.25 118.45 99.6246 117.725 99.7746 116.275L101.275 106.075C101.425 104.525 102.275 103.75 103.825 103.75H142.375C143.875 103.75 144.725 104.525 144.925 106.075L146.5 116.35C146.6 117 146.475 117.525 146.125 117.925C145.775 118.275 145.275 118.45 144.625 118.45H143.35C142.6 118.45 141.85 117.975 141.1 117.025C140.35 116.075 139.7 115.05 139.15 113.95C138.6 112.8 137.85 111.75 136.9 110.8C135.95 109.85 134.9 109.375 133.75 109.375H129.85V148.825C129.85 150.075 130.375 151.325 131.425 152.575C132.525 153.775 133.075 154.675 133.075 155.275V155.575C133.075 156.525 132.475 157 131.275 157H114.85ZM158.633 157.675C153.833 157.675 149.883 156.875 146.783 155.275C143.683 153.625 142.133 151.5 142.133 148.9C142.133 147.3 142.608 146.1 143.558 145.3C144.558 144.5 145.858 144.1 147.458 144.1C149.158 144.1 150.508 144.65 151.508 145.75C152.508 146.8 153.183 147.975 153.533 149.275C153.883 150.525 154.483 151.7 155.333 152.8C156.183 153.85 157.283 154.375 158.633 154.375C161.333 154.375 162.683 153 162.683 150.25C162.683 148.45 161.983 147.025 160.583 145.975C159.233 144.925 157.583 144.125 155.633 143.575C153.683 143.025 151.733 142.4 149.783 141.7C147.883 141 146.233 139.825 144.833 138.175C143.483 136.525 142.808 134.35 142.808 131.65C142.808 128.3 144.283 125.575 147.233 123.475C150.183 121.325 153.983 120.25 158.633 120.25C163.283 120.25 167.058 121.125 169.958 122.875C172.908 124.625 174.383 126.75 174.383 129.25C174.383 130.55 173.883 131.65 172.883 132.55C171.933 133.4 170.758 133.825 169.358 133.825C167.708 133.825 166.408 133.3 165.458 132.25C164.508 131.2 163.858 130.05 163.508 128.8C163.208 127.5 162.708 126.325 162.008 125.275C161.358 124.225 160.458 123.7 159.308 123.7C158.208 123.7 157.333 124.125 156.683 124.975C156.083 125.825 155.783 126.825 155.783 127.975C155.783 129.825 156.433 131.325 157.733 132.475C159.083 133.625 160.683 134.5 162.533 135.1C164.433 135.7 166.308 136.35 168.158 137.05C170.058 137.75 171.658 138.9 172.958 140.5C174.308 142.05 174.983 144.1 174.983 146.65C174.983 149.85 173.508 152.5 170.558 154.6C167.658 156.65 163.683 157.675 158.633 157.675ZM205.638 157C204.438 157 203.838 156.525 203.838 155.575V155.275C203.838 154.625 204.413 153.725 205.563 152.575C206.763 151.425 207.638 150.175 208.188 148.825L222.213 112.525C222.663 111.425 222.288 110.075 221.088 108.475C219.888 106.875 219.288 105.875 219.288 105.475V105.175C219.288 104.225 219.863 103.75 221.013 103.75H238.263C239.413 103.75 239.988 104.225 239.988 105.175V105.475C239.988 105.825 239.763 106.275 239.313 106.825C238.913 107.325 238.488 107.825 238.038 108.325C237.588 108.775 237.238 109.375 236.988 110.125C236.738 110.825 236.788 111.55 237.138 112.3L252.888 148.825C253.438 150.175 254.288 151.425 255.438 152.575C256.638 153.675 257.238 154.575 257.238 155.275V155.575C257.238 156.525 256.638 157 255.438 157H236.238C235.038 157 234.438 156.525 234.438 155.575V155.275C234.438 154.725 234.788 154.15 235.488 153.55C236.238 152.9 236.863 152.2 237.363 151.45C237.913 150.7 238.013 149.825 237.663 148.825L235.938 144.175H216.963L215.313 148.825C214.963 149.825 215.038 150.7 215.538 151.45C216.088 152.2 216.713 152.9 217.413 153.55C218.163 154.15 218.538 154.725 218.538 155.275V155.575C218.538 156.525 217.938 157 216.738 157H205.638ZM218.988 138.55H234.063L226.488 117.775L218.988 138.55ZM283.937 120.25C286.087 120.25 287.787 120.95 289.037 122.35C290.337 123.75 290.987 125.525 290.987 127.675C290.987 132.375 289.062 134.725 285.212 134.725C283.662 134.725 282.487 134.375 281.687 133.675C280.887 132.925 280.412 132.1 280.262 131.2C280.162 130.3 279.912 129.5 279.512 128.8C279.112 128.05 278.512 127.675 277.712 127.675C275.862 127.675 274.937 130.075 274.937 134.875V148.825C274.937 150.075 275.587 151.325 276.887 152.575C278.237 153.775 278.912 154.675 278.912 155.275V155.575C278.912 156.525 278.312 157 277.112 157H260.987C259.787 157 259.187 156.525 259.187 155.575V155.275C259.187 154.675 259.687 153.775 260.687 152.575C261.687 151.325 262.187 150.075 262.187 148.825V133.9C262.187 132.9 261.887 132.05 261.287 131.35C260.687 130.65 260.087 130.05 259.487 129.55C258.887 129.05 258.587 128.5 258.587 127.9V127.675C258.587 126.825 259.162 126.1 260.312 125.5L270.887 120.55C271.887 120.2 272.587 120.175 272.987 120.475C273.387 120.775 273.587 121.35 273.587 122.2V127.675C275.287 122.725 278.737 120.25 283.937 120.25ZM308.469 157.75C304.669 157.75 301.669 156.55 299.469 154.15C297.319 151.75 296.244 148.325 296.244 143.875V126.1H293.394C292.894 126.1 292.469 125.95 292.119 125.65C291.819 125.3 291.669 124.875 291.669 124.375V122.725C291.669 121.575 292.244 121 293.394 121H294.819C297.119 121 299.094 120.325 300.744 118.975C302.394 117.575 303.469 115.725 303.969 113.425C304.219 112.125 304.894 111.475 305.994 111.475H307.719C309.069 111.475 309.744 112.125 309.744 113.425V121H317.469C317.969 121 318.369 121.175 318.669 121.525C319.019 121.825 319.194 122.225 319.194 122.725V124.375C319.194 124.875 319.019 125.3 318.669 125.65C318.369 125.95 317.969 126.1 317.469 126.1H309.744V144.1C309.744 145.35 310.069 146.35 310.719 147.1C311.369 147.8 312.169 148.15 313.119 148.15C315.269 148.15 316.919 147.225 318.069 145.375C318.419 144.925 318.819 144.675 319.269 144.625C319.719 144.525 320.094 144.6 320.394 144.85C320.744 145.1 320.919 145.45 320.919 145.9C320.919 149.05 319.794 151.825 317.544 154.225C315.344 156.575 312.319 157.75 308.469 157.75ZM406.594 103.75C407.794 103.75 408.394 104.225 408.394 105.175V105.475C408.394 106.175 407.769 107.075 406.519 108.175C405.269 109.275 404.369 110.525 403.819 111.925L387.244 153.25C386.244 155.75 384.719 157 382.669 157C380.319 157 378.694 155.85 377.794 153.55L372.469 139.825L366.694 153.25C365.594 155.75 363.894 157 361.594 157C359.094 157 357.319 155.85 356.269 153.55L337.669 112C337.069 110.65 336.119 109.4 334.819 108.25C333.519 107.1 332.869 106.175 332.869 105.475V105.175C332.869 104.225 333.469 103.75 334.669 103.75H352.294C353.444 103.75 354.019 104.225 354.019 105.175V105.475C354.019 106.025 353.669 106.65 352.969 107.35C352.319 108 351.794 108.6 351.394 109.15C351.044 109.7 351.069 110.65 351.469 112L364.294 142.9L369.094 131.275L361.594 111.925C361.044 110.575 360.219 109.35 359.119 108.25C358.069 107.1 357.544 106.175 357.544 105.475V105.175C357.544 104.225 358.119 103.75 359.269 103.75H370.369C371.569 103.75 372.344 104.325 372.694 105.475L375.919 115L379.969 105.4C380.419 104.3 381.244 103.75 382.444 103.75H388.744C389.944 103.75 390.544 104.225 390.544 105.175V105.475C390.544 106.075 390.194 106.575 389.494 106.975C388.794 107.325 387.944 107.85 386.944 108.55C385.944 109.2 385.219 110.075 384.769 111.175L379.144 124.375L384.844 141.1L396.469 111.925C396.869 110.975 396.819 110.125 396.319 109.375C395.869 108.625 395.294 107.925 394.594 107.275C393.894 106.625 393.544 106.025 393.544 105.475V105.175C393.544 104.225 394.144 103.75 395.344 103.75H406.594ZM423.94 157.75C418.14 157.75 413.215 155.975 409.165 152.425C405.165 148.825 403.165 144.325 403.165 138.925C403.165 133.525 405.165 129.075 409.165 125.575C413.165 122.025 417.915 120.25 423.415 120.25C429.115 120.25 433.965 122.025 437.965 125.575C441.965 129.125 443.965 133.625 443.965 139.075C443.965 144.475 442.015 148.95 438.115 152.5C434.215 156 429.49 157.75 423.94 157.75ZM425.515 154.075C428.715 154.075 430.315 151 430.315 144.85C430.315 142.6 429.99 139.925 429.34 136.825C428.74 133.725 427.69 130.8 426.19 128.05C424.74 125.3 423.115 123.925 421.315 123.925C419.565 123.925 418.315 124.7 417.565 126.25C416.815 127.8 416.44 130.15 416.44 133.3C416.44 134.95 416.64 136.9 417.04 139.15C417.44 141.4 417.99 143.675 418.69 145.975C419.39 148.225 420.34 150.15 421.54 151.75C422.79 153.3 424.115 154.075 425.515 154.075ZM472.608 120.25C474.758 120.25 476.458 120.95 477.708 122.35C479.008 123.75 479.658 125.525 479.658 127.675C479.658 132.375 477.733 134.725 473.883 134.725C472.333 134.725 471.158 134.375 470.358 133.675C469.558 132.925 469.083 132.1 468.933 131.2C468.833 130.3 468.583 129.5 468.183 128.8C467.783 128.05 467.183 127.675 466.383 127.675C464.533 127.675 463.608 130.075 463.608 134.875V148.825C463.608 150.075 464.258 151.325 465.558 152.575C466.908 153.775 467.583 154.675 467.583 155.275V155.575C467.583 156.525 466.983 157 465.783 157H449.658C448.458 157 447.858 156.525 447.858 155.575V155.275C447.858 154.675 448.358 153.775 449.358 152.575C450.358 151.325 450.858 150.075 450.858 148.825V133.9C450.858 132.9 450.558 132.05 449.958 131.35C449.358 130.65 448.758 130.05 448.158 129.55C447.558 129.05 447.258 128.5 447.258 127.9V127.675C447.258 126.825 447.833 126.1 448.983 125.5L459.558 120.55C460.558 120.2 461.258 120.175 461.658 120.475C462.058 120.775 462.258 121.35 462.258 122.2V127.675C463.958 122.725 467.408 120.25 472.608 120.25ZM521.516 150.7C521.716 151.05 522.441 151.7 523.691 152.65C524.991 153.55 525.641 154.425 525.641 155.275V155.575C525.641 156.525 525.066 157 523.916 157H508.241C507.091 157 506.516 156.5 506.516 155.5V155.2C506.516 154.6 506.891 153.875 507.641 153.025C508.391 152.175 508.541 151.4 508.091 150.7L501.641 140.65C500.241 140.9 498.916 141.025 497.666 141.025V148.75C497.666 150 498.216 151.25 499.316 152.5C500.466 153.75 501.041 154.675 501.041 155.275V155.575C501.041 156.525 500.441 157 499.241 157H482.966C481.766 157 481.166 156.525 481.166 155.575V155.275C481.166 154.675 481.666 153.75 482.666 152.5C483.666 151.25 484.166 150 484.166 148.75V114.55C484.166 113.25 483.566 112 482.366 110.8C481.166 109.55 480.566 108.675 480.566 108.175V107.875C480.566 107.325 481.141 106.75 482.291 106.15L494.291 100.6C495.341 100.2 496.166 100.175 496.766 100.525C497.366 100.825 497.666 101.375 497.666 102.175V135.7C500.016 135.5 501.916 134.825 503.366 133.675C504.866 132.525 505.916 131.225 506.516 129.775C507.166 128.325 507.741 126.875 508.241 125.425C508.741 123.975 509.466 122.775 510.416 121.825C511.416 120.825 512.741 120.325 514.391 120.325C516.341 120.325 517.791 120.85 518.741 121.9C519.741 122.9 520.241 124.225 520.241 125.875C520.241 127.675 519.516 129.6 518.066 131.65C516.666 133.65 514.691 135.425 512.141 136.975L521.516 150.7Z" fill="black"/>
<path d="M142.298 58.75C134.998 58.75 128.873 55.95 123.923 50.35C119.023 44.75 116.573 38.2 116.573 30.7C116.573 23 118.873 16.65 123.473 11.65C128.073 6.6 134.098 4.075 141.548 4.075C147.448 4.075 152.548 5.5 156.848 8.35C161.148 11.15 163.298 14.5 163.298 18.4C163.298 20.15 162.723 21.575 161.573 22.675C160.473 23.775 158.973 24.325 157.073 24.325C155.373 24.325 153.848 23.825 152.498 22.825C151.148 21.775 150.023 20.525 149.123 19.075C148.273 17.625 147.398 16.175 146.498 14.725C145.598 13.225 144.498 11.975 143.198 10.975C141.948 9.925 140.498 9.4 138.848 9.4C136.348 9.4 134.198 10.575 132.398 12.925C130.648 15.275 129.773 18.45 129.773 22.45C129.773 29.5 131.473 35.3 134.873 39.85C138.273 44.35 142.198 46.6 146.648 46.6C148.298 46.6 149.798 46.35 151.148 45.85C152.548 45.35 153.773 44.65 154.823 43.75C155.923 42.8 156.748 41.975 157.298 41.275C157.898 40.575 158.573 39.7 159.323 38.65C160.023 37.8 160.898 37.525 161.948 37.825C162.998 38.075 163.498 38.8 163.448 40C163.248 45.2 161.323 49.625 157.673 53.275C154.073 56.925 148.948 58.75 142.298 58.75ZM187.514 58.75C181.714 58.75 176.789 56.975 172.739 53.425C168.739 49.825 166.739 45.325 166.739 39.925C166.739 34.525 168.739 30.075 172.739 26.575C176.739 23.025 181.489 21.25 186.989 21.25C192.689 21.25 197.539 23.025 201.539 26.575C205.539 30.125 207.539 34.625 207.539 40.075C207.539 45.475 205.589 49.95 201.689 53.5C197.789 57 193.064 58.75 187.514 58.75ZM189.089 55.075C192.289 55.075 193.889 52 193.889 45.85C193.889 43.6 193.564 40.925 192.914 37.825C192.314 34.725 191.264 31.8 189.764 29.05C188.314 26.3 186.689 24.925 184.889 24.925C183.139 24.925 181.889 25.7 181.139 27.25C180.389 28.8 180.014 31.15 180.014 34.3C180.014 35.95 180.214 37.9 180.614 40.15C181.014 42.4 181.564 44.675 182.264 46.975C182.964 49.225 183.914 51.15 185.114 52.75C186.364 54.3 187.689 55.075 189.089 55.075ZM212.483 58C211.333 58 210.758 57.525 210.758 56.575V56.275C210.758 55.675 211.233 54.775 212.183 53.575C213.183 52.325 213.683 51.075 213.683 49.825V15.55C213.683 14.25 213.183 13 212.183 11.8C211.233 10.55 210.758 9.675 210.758 9.175V8.875C210.758 8.325 211.308 7.75 212.408 7.15L223.733 1.6C224.783 1.15 225.608 1.125 226.208 1.525C226.858 1.875 227.183 2.425 227.183 3.175V49.825C227.183 51.075 227.733 52.325 228.833 53.575C229.933 54.775 230.483 55.675 230.483 56.275V56.575C230.483 57.525 229.883 58 228.683 58H212.483ZM235.188 58C234.038 58 233.463 57.525 233.463 56.575V56.275C233.463 55.675 233.938 54.775 234.888 53.575C235.888 52.325 236.388 51.075 236.388 49.825V15.55C236.388 14.25 235.888 13 234.888 11.8C233.938 10.55 233.463 9.675 233.463 9.175V8.875C233.463 8.325 234.013 7.75 235.113 7.15L246.438 1.6C247.488 1.15 248.313 1.125 248.913 1.525C249.563 1.875 249.888 2.425 249.888 3.175V49.825C249.888 51.075 250.438 52.325 251.538 53.575C252.638 54.775 253.188 55.675 253.188 56.275V56.575C253.188 57.525 252.588 58 251.388 58H235.188ZM287.743 46.15C288.293 45.6 288.893 45.45 289.543 45.7C290.243 45.9 290.568 46.4 290.518 47.2C290.468 48.35 290.118 49.55 289.468 50.8C288.868 52.05 287.993 53.3 286.843 54.55C285.693 55.75 284.093 56.75 282.043 57.55C280.043 58.35 277.768 58.75 275.218 58.75C269.618 58.75 265.043 57 261.493 53.5C257.993 50 256.243 45.425 256.243 39.775C256.243 34.325 258.043 29.9 261.643 26.5C265.243 23.05 269.643 21.3 274.843 21.25C279.293 21.2 282.893 22.175 285.643 24.175C288.393 26.175 289.768 28.825 289.768 32.125C289.768 34.725 288.643 37.025 286.393 39.025C284.193 41.025 281.318 42.3 277.768 42.85C275.268 43.3 272.768 43.475 270.268 43.375C272.368 47.425 275.518 49.45 279.718 49.45C283.418 49.45 286.093 48.35 287.743 46.15ZM273.268 25.225C271.718 25.225 270.468 26 269.518 27.55C268.618 29.1 268.168 31.125 268.168 33.625C268.168 35.675 268.393 37.6 268.843 39.4C270.243 39.45 271.493 39.4 272.593 39.25C275.993 38.65 277.693 35.95 277.693 31.15C277.643 29.5 277.193 28.1 276.343 26.95C275.543 25.8 274.518 25.225 273.268 25.225ZM312.945 58.75C307.245 58.75 302.57 56.9 298.92 53.2C295.27 49.45 293.445 45.025 293.445 39.925C293.445 34.275 295.295 29.775 298.995 26.425C302.695 23.025 307.195 21.3 312.495 21.25C316.945 21.2 320.72 22.225 323.82 24.325C326.92 26.375 328.47 29.05 328.47 32.35C328.47 33.6 328.02 34.65 327.12 35.5C326.27 36.35 324.895 36.75 322.995 36.7C321.295 36.6 319.82 35.925 318.57 34.675C317.37 33.425 316.495 32.075 315.945 30.625C315.395 29.175 314.645 27.875 313.695 26.725C312.745 25.525 311.67 24.925 310.47 24.925C308.92 24.975 307.645 25.8 306.645 27.4C305.695 29 305.22 30.975 305.22 33.325C305.22 38.225 306.32 42.15 308.52 45.1C310.77 48.05 313.745 49.525 317.445 49.525C320.795 49.525 323.57 48.075 325.77 45.175C326.27 44.575 326.87 44.375 327.57 44.575C328.27 44.725 328.62 45.2 328.62 46C328.52 49.5 327.095 52.5 324.345 55C321.595 57.5 317.795 58.75 312.945 58.75ZM347.58 58.75C343.78 58.75 340.78 57.55 338.58 55.15C336.43 52.75 335.355 49.325 335.355 44.875V27.1H332.505C332.005 27.1 331.58 26.95 331.23 26.65C330.93 26.3 330.78 25.875 330.78 25.375V23.725C330.78 22.575 331.355 22 332.505 22H333.93C336.23 22 338.205 21.325 339.855 19.975C341.505 18.575 342.58 16.725 343.08 14.425C343.33 13.125 344.005 12.475 345.105 12.475H346.83C348.18 12.475 348.855 13.125 348.855 14.425V22H356.58C357.08 22 357.48 22.175 357.78 22.525C358.13 22.825 358.305 23.225 358.305 23.725V25.375C358.305 25.875 358.13 26.3 357.78 26.65C357.48 26.95 357.08 27.1 356.58 27.1H348.855V45.1C348.855 46.35 349.18 47.35 349.83 48.1C350.48 48.8 351.28 49.15 352.23 49.15C354.38 49.15 356.03 48.225 357.18 46.375C357.53 45.925 357.93 45.675 358.38 45.625C358.83 45.525 359.205 45.6 359.505 45.85C359.855 46.1 360.03 46.45 360.03 46.9C360.03 50.05 358.905 52.825 356.655 55.225C354.455 57.575 351.43 58.75 347.58 58.75ZM379.951 58C378.751 58 378.151 57.525 378.151 56.575V56.275C378.151 55.675 378.651 54.775 379.651 53.575C380.651 52.325 381.151 51.075 381.151 49.825V12.925C381.151 11.675 380.651 10.45 379.651 9.25C378.651 8 378.151 7.075 378.151 6.475V6.175C378.151 5.225 378.751 4.75 379.951 4.75H397.651C408.101 4.75 416.226 7.225 422.026 12.175C427.876 17.125 430.801 23.625 430.801 31.675C430.801 39.525 428.101 45.875 422.701 50.725C417.351 55.575 410.251 58 401.401 58H379.951ZM401.101 52.75H404.101C407.801 52.75 410.801 51.475 413.101 48.925C415.401 46.375 416.551 42.725 416.551 37.975C416.551 33.125 415.801 28.575 414.301 24.325C412.801 20.025 410.676 16.575 407.926 13.975C405.176 11.325 402.126 10 398.776 10H397.951C395.701 10 394.576 11.2 394.576 13.6V45.025C394.576 47.475 395.151 49.375 396.301 50.725C397.451 52.075 399.051 52.75 401.101 52.75ZM444.643 17.575C442.093 17.575 440.018 16.875 438.418 15.475C436.818 14.025 436.018 12.225 436.018 10.075C436.018 7.925 436.818 6.15 438.418 4.75C440.018 3.3 442.093 2.575 444.643 2.575C447.143 2.575 449.193 3.3 450.793 4.75C452.393 6.15 453.193 7.925 453.193 10.075C453.193 12.225 452.393 14.025 450.793 15.475C449.193 16.875 447.143 17.575 444.643 17.575ZM436.618 58C435.418 58 434.818 57.525 434.818 56.575V56.275C434.818 55.675 435.318 54.75 436.318 53.5C437.318 52.25 437.818 51 437.818 49.75V35.5C437.818 34.2 437.318 32.95 436.318 31.75C435.318 30.5 434.818 29.65 434.818 29.2V28.9C434.818 28.3 435.393 27.725 436.543 27.175L447.868 21.625C448.918 21.175 449.743 21.125 450.343 21.475C450.943 21.825 451.243 22.4 451.243 23.2V49.75C451.243 51 451.793 52.25 452.893 53.5C454.043 54.75 454.618 55.675 454.618 56.275V56.575C454.618 57.525 453.993 58 452.743 58H436.618ZM497.411 23.125C498.611 23.275 499.211 23.975 499.211 25.225V25.525C499.211 25.925 498.936 26.4 498.386 26.95C497.836 27.5 497.286 28.225 496.736 29.125C496.186 30.025 495.911 31.075 495.911 32.275V53.2C495.911 59.55 494.136 64.425 490.586 67.825C487.036 71.275 482.561 73 477.161 73C471.711 73 467.236 72.025 463.736 70.075C460.286 68.175 458.561 65.8 458.561 62.95C458.561 61.65 459.011 60.5 459.911 59.5C460.811 58.5 462.086 58 463.736 58C465.086 58 466.236 58.375 467.186 59.125C468.186 59.925 468.986 60.875 469.586 61.975C470.236 63.075 470.861 64.175 471.461 65.275C472.111 66.425 472.911 67.375 473.861 68.125C474.811 68.925 475.936 69.35 477.236 69.4C478.986 69.45 480.411 68.475 481.511 66.475C482.661 64.525 483.236 61.425 483.236 57.175V55.75C481.036 57.25 478.411 58 475.361 58C470.561 58 466.411 56.375 462.911 53.125C459.461 49.875 457.736 45.5 457.736 40C457.736 34.55 459.461 30.075 462.911 26.575C466.411 23.025 470.586 21.25 475.436 21.25C479.136 21.25 482.186 22.3 484.586 24.4V23.95C484.586 23.15 484.911 22.55 485.561 22.15C486.211 21.75 487.086 21.625 488.186 21.775L497.411 23.125ZM478.361 54.325C479.711 54.375 480.861 53.825 481.811 52.675C482.761 51.525 483.236 49.975 483.236 48.025V34.3C483.236 31.9 482.536 29.75 481.136 27.85C479.736 25.9 478.161 24.925 476.411 24.925C472.761 24.925 470.811 28 470.561 34.15C470.461 36.4 470.661 39.025 471.161 42.025C471.661 45.025 472.561 47.825 473.861 50.425C475.161 52.975 476.661 54.275 478.361 54.325ZM512.319 17.575C509.769 17.575 507.694 16.875 506.094 15.475C504.494 14.025 503.694 12.225 503.694 10.075C503.694 7.925 504.494 6.15 506.094 4.75C507.694 3.3 509.769 2.575 512.319 2.575C514.819 2.575 516.869 3.3 518.469 4.75C520.069 6.15 520.869 7.925 520.869 10.075C520.869 12.225 520.069 14.025 518.469 15.475C516.869 16.875 514.819 17.575 512.319 17.575ZM504.294 58C503.094 58 502.494 57.525 502.494 56.575V56.275C502.494 55.675 502.994 54.75 503.994 53.5C504.994 52.25 505.494 51 505.494 49.75V35.5C505.494 34.2 504.994 32.95 503.994 31.75C502.994 30.5 502.494 29.65 502.494 29.2V28.9C502.494 28.3 503.069 27.725 504.219 27.175L515.544 21.625C516.594 21.175 517.419 21.125 518.019 21.475C518.619 21.825 518.919 22.4 518.919 23.2V49.75C518.919 51 519.469 52.25 520.569 53.5C521.719 54.75 522.294 55.675 522.294 56.275V56.575C522.294 57.525 521.669 58 520.419 58H504.294ZM541.086 58.75C537.286 58.75 534.286 57.55 532.086 55.15C529.936 52.75 528.861 49.325 528.861 44.875V27.1H526.011C525.511 27.1 525.086 26.95 524.736 26.65C524.436 26.3 524.286 25.875 524.286 25.375V23.725C524.286 22.575 524.861 22 526.011 22H527.436C529.736 22 531.711 21.325 533.361 19.975C535.011 18.575 536.086 16.725 536.586 14.425C536.836 13.125 537.511 12.475 538.611 12.475H540.336C541.686 12.475 542.361 13.125 542.361 14.425V22H550.086C550.586 22 550.986 22.175 551.286 22.525C551.636 22.825 551.811 23.225 551.811 23.725V25.375C551.811 25.875 551.636 26.3 551.286 26.65C550.986 26.95 550.586 27.1 550.086 27.1H542.361V45.1C542.361 46.35 542.686 47.35 543.336 48.1C543.986 48.8 544.786 49.15 545.736 49.15C547.886 49.15 549.536 48.225 550.686 46.375C551.036 45.925 551.436 45.675 551.886 45.625C552.336 45.525 552.711 45.6 553.011 45.85C553.361 46.1 553.536 46.45 553.536 46.9C553.536 50.05 552.411 52.825 550.161 55.225C547.961 57.575 544.936 58.75 541.086 58.75ZM596.692 25.525C596.692 25.925 596.417 26.4 595.867 26.95C595.317 27.5 594.767 28.225 594.217 29.125C593.667 30.025 593.392 31.075 593.392 32.275V49.825C593.392 51.075 593.892 52.325 594.892 53.575C595.892 54.775 596.392 55.675 596.392 56.275V56.575C596.392 57.525 595.842 58 594.742 58H584.017C583.467 58 582.992 57.825 582.592 57.475C582.242 57.125 582.067 56.675 582.067 56.125V55.45C579.767 57.65 576.717 58.75 572.917 58.75C568.067 58.75 563.892 57.1 560.392 53.8C556.942 50.45 555.217 45.85 555.217 40C555.217 34.55 556.967 30.075 560.467 26.575C563.967 23.025 568.142 21.25 572.992 21.25C576.692 21.25 579.717 22.3 582.067 24.4V23.95C582.067 23.15 582.392 22.55 583.042 22.15C583.692 21.75 584.567 21.625 585.667 21.775L594.892 23.125C596.092 23.275 596.692 23.975 596.692 25.225V25.525ZM575.917 55.075C577.267 55.125 578.392 54.575 579.292 53.425C580.242 52.275 580.717 50.725 580.717 48.775V34.3C580.717 31.6 580.042 29.375 578.692 27.625C577.342 25.825 575.767 24.925 573.967 24.925C570.267 24.925 568.292 28 568.042 34.15C567.942 36.5 568.142 39.225 568.642 42.325C569.192 45.425 570.092 48.325 571.342 51.025C572.642 53.675 574.167 55.025 575.917 55.075ZM601.985 58C600.835 58 600.26 57.525 600.26 56.575V56.275C600.26 55.675 600.735 54.775 601.685 53.575C602.685 52.325 603.185 51.075 603.185 49.825V15.55C603.185 14.25 602.685 13 601.685 11.8C600.735 10.55 600.26 9.675 600.26 9.175V8.875C600.26 8.325 600.81 7.75 601.91 7.15L613.235 1.6C614.285 1.15 615.11 1.125 615.71 1.525C616.36 1.875 616.685 2.425 616.685 3.175V49.825C616.685 51.075 617.235 52.325 618.335 53.575C619.435 54.775 619.985 55.675 619.985 56.275V56.575C619.985 57.525 619.385 58 618.185 58H601.985Z" fill="#2927A6"/>
</svg>
