<svg width="113" height="210" viewBox="0 0 113 210" fill="none" xmlns="http://www.w3.org/2000/svg">
<path d="M44.449 149.288C44.6543 149.288 44.8036 149.353 44.897 149.484C45.009 149.615 45.0463 149.773 45.009 149.96L44.113 154.328C44.001 154.776 43.7676 155 43.413 155H29.861C29.6556 155 29.4783 154.935 29.329 154.804C29.1796 154.673 29.105 154.515 29.105 154.328V153.964C29.105 152.863 29.4316 151.78 30.085 150.716C30.757 149.633 31.5596 148.653 32.493 147.776C33.445 146.899 34.3876 146.049 35.321 145.228C36.2543 144.388 37.0476 143.511 37.701 142.596C38.373 141.663 38.709 140.757 38.709 139.88C38.709 138.947 38.5036 138.2 38.093 137.64C37.6823 137.061 37.1876 136.772 36.609 136.772C36.1983 136.772 35.853 136.959 35.573 137.332C35.293 137.705 35.0596 138.153 34.873 138.676C34.6863 139.199 34.481 139.721 34.257 140.244C34.033 140.767 33.7063 141.215 33.277 141.588C32.8476 141.961 32.325 142.148 31.709 142.148C30.9996 142.148 30.4116 141.943 29.945 141.532C29.4783 141.103 29.245 140.524 29.245 139.796C29.245 138.415 29.9636 137.248 31.401 136.296C32.857 135.325 34.621 134.84 36.693 134.84C38.989 134.84 40.7996 135.288 42.125 136.184C43.469 137.08 44.141 138.471 44.141 140.356C44.141 141.401 43.833 142.381 43.217 143.296C42.601 144.192 41.8263 144.967 40.893 145.62C39.9783 146.273 39.0356 146.889 38.065 147.468C37.113 148.047 36.2263 148.681 35.405 149.372C34.5836 150.063 34.0423 150.753 33.781 151.444H40.977C41.4623 151.444 41.8823 151.332 42.237 151.108C42.5916 150.884 42.8436 150.641 42.993 150.38C43.161 150.1 43.3383 149.848 43.525 149.624C43.7116 149.4 43.8983 149.288 44.085 149.288H44.449ZM54.6429 142.4C56.4536 142.4 58.0496 142.941 59.4309 144.024C60.8123 145.088 61.5029 146.563 61.5029 148.448C61.5029 150.445 60.7656 152.088 59.2909 153.376C57.8349 154.645 55.9403 155.28 53.6069 155.28C51.3669 155.28 49.6123 154.897 48.3429 154.132C47.0736 153.367 46.4389 152.349 46.4389 151.08C46.4389 150.277 46.6723 149.689 47.1389 149.316C47.6243 148.924 48.2029 148.728 48.8749 148.728C49.3603 148.728 49.7709 148.887 50.1069 149.204C50.4616 149.521 50.7416 149.904 50.9469 150.352C51.1523 150.8 51.3576 151.248 51.5629 151.696C51.7869 152.144 52.0669 152.527 52.4029 152.844C52.7576 153.161 53.1683 153.32 53.6349 153.32C54.4189 153.32 55.0536 152.975 55.5389 152.284C56.0429 151.593 56.2949 150.539 56.2949 149.12C56.2949 145.947 55.2123 144.36 53.0469 144.36C52.0763 144.36 51.0869 144.761 50.0789 145.564C49.5749 145.975 48.9963 146.059 48.3429 145.816C47.7083 145.573 47.4283 145.163 47.5029 144.584L48.5389 135.736C48.5949 135.325 48.8469 135.12 49.2949 135.12H60.0749C60.5416 135.12 60.7749 135.353 60.7749 135.82V138.424C60.7749 138.891 60.5416 139.124 60.0749 139.124H50.5549L49.8829 144.052C51.2643 142.951 52.8509 142.4 54.6429 142.4ZM81.3506 151.108C81.4439 151.743 81.7426 152.396 82.2466 153.068C82.7692 153.721 83.0306 154.151 83.0306 154.356V154.468C83.0306 154.823 82.8066 155 82.3586 155H75.4706C75.0226 155 74.7986 154.823 74.7986 154.468V154.356C74.7986 154.151 75.0132 153.833 75.4426 153.404C75.8719 152.956 76.0772 152.461 76.0586 151.92C76.0586 150.837 75.6572 149.605 74.8546 148.224C74.0706 146.824 73.1279 145.779 72.0266 145.088L69.5906 147.58V151.92C69.5906 152.387 69.7959 152.853 70.2066 153.32C70.6172 153.787 70.8226 154.132 70.8226 154.356V154.468C70.8226 154.823 70.5986 155 70.1506 155H64.0466C63.5986 155 63.3746 154.823 63.3746 154.468V154.356C63.3746 154.132 63.5612 153.787 63.9346 153.32C64.3079 152.853 64.4946 152.387 64.4946 151.92V138.172C64.4946 137.705 64.3079 137.248 63.9346 136.8C63.5612 136.333 63.3746 135.988 63.3746 135.764V135.652C63.3746 135.297 63.5986 135.12 64.0466 135.12H70.1506C70.5986 135.12 70.8226 135.297 70.8226 135.652V135.764C70.8226 135.988 70.6172 136.333 70.2066 136.8C69.7959 137.248 69.5906 137.705 69.5906 138.172V144.556L75.7786 138.2C76.0959 137.771 76.2359 137.463 76.1986 137.276C76.1612 137.071 76.0399 136.819 75.8346 136.52C75.6479 136.203 75.5546 135.951 75.5546 135.764V135.652C75.5546 135.297 75.7786 135.12 76.2266 135.12H80.7906C81.2386 135.12 81.4626 135.297 81.4626 135.652V135.764C81.4626 135.988 81.3319 136.212 81.0706 136.436C80.8279 136.641 80.4732 136.903 80.0066 137.22C79.5399 137.537 79.1479 137.864 78.8306 138.2L75.3866 141.7C77.0852 142.745 78.4479 144.192 79.4746 146.04C80.5199 147.869 81.1452 149.559 81.3506 151.108Z" fill="black"/>
<path opacity="0.63" d="M27.9 179C27.724 179 27.636 178.944 27.636 178.832V178.796C27.636 178.724 27.712 178.62 27.864 178.484C28.016 178.34 28.092 178.18 28.092 178.004V171.476C28.092 171.3 28.016 171.144 27.864 171.008C27.712 170.864 27.636 170.756 27.636 170.684V170.648C27.636 170.536 27.724 170.48 27.9 170.48H30.54C32.012 170.48 33.22 170.884 34.164 171.692C35.116 172.492 35.592 173.496 35.592 174.704C35.592 176.008 35.168 177.052 34.32 177.836C33.48 178.612 32.4 179 31.08 179H27.9ZM30.24 178.388H30.996C31.908 178.388 32.652 178.104 33.228 177.536C33.812 176.968 34.104 176.204 34.104 175.244C34.104 174.052 33.736 173.064 33 172.28C32.264 171.488 31.352 171.092 30.264 171.092H29.928C29.656 171.092 29.52 171.24 29.52 171.536V177.536C29.52 177.808 29.584 178.02 29.712 178.172C29.84 178.316 30.016 178.388 30.24 178.388ZM37.596 172.244C37.3 172.244 37.06 172.16 36.876 171.992C36.692 171.824 36.6 171.608 36.6 171.344C36.6 171.08 36.692 170.864 36.876 170.696C37.06 170.528 37.3 170.444 37.596 170.444C37.884 170.444 38.116 170.528 38.292 170.696C38.476 170.864 38.568 171.08 38.568 171.344C38.568 171.608 38.476 171.824 38.292 171.992C38.116 172.16 37.884 172.244 37.596 172.244ZM36.708 179C36.54 179 36.456 178.94 36.456 178.82V178.772C36.456 178.7 36.528 178.596 36.672 178.46C36.824 178.324 36.9 178.168 36.9 177.992V174.848C36.9 174.664 36.824 174.492 36.672 174.332C36.528 174.172 36.456 174.068 36.456 174.02V173.984C36.456 173.92 36.528 173.848 36.672 173.768L37.872 173.168C38.008 173.112 38.112 173.108 38.184 173.156C38.264 173.196 38.304 173.268 38.304 173.372V177.992C38.304 178.168 38.384 178.324 38.544 178.46C38.712 178.596 38.796 178.7 38.796 178.772V178.82C38.796 178.94 38.708 179 38.532 179H36.708ZM45.5718 173.396C45.7158 173.436 45.7878 173.52 45.7878 173.648V173.684C45.7878 173.732 45.7478 173.792 45.6678 173.864C45.5878 173.928 45.5078 174.016 45.4278 174.128C45.3478 174.24 45.3078 174.372 45.3078 174.524V178.352C45.3078 179.336 45.0518 180.092 44.5398 180.62C44.0358 181.148 43.3798 181.412 42.5718 181.412C41.7718 181.412 41.1198 181.236 40.6158 180.884C40.1118 180.532 39.8598 180.148 39.8598 179.732C39.8598 179.58 39.9118 179.448 40.0158 179.336C40.1198 179.232 40.2678 179.18 40.4598 179.18C40.6118 179.18 40.7438 179.24 40.8558 179.36C40.9678 179.48 41.0678 179.628 41.1558 179.804C41.2438 179.98 41.3398 180.156 41.4438 180.332C41.5478 180.508 41.6998 180.656 41.8998 180.776C42.1078 180.904 42.3518 180.968 42.6318 180.968C43.0318 180.968 43.3518 180.784 43.5918 180.416C43.8318 180.048 43.9518 179.484 43.9518 178.724V178.328C43.5518 178.776 43.0118 179 42.3318 179C41.5718 179 40.9158 178.732 40.3638 178.196C39.8118 177.652 39.5358 176.956 39.5358 176.108C39.5358 175.236 39.8038 174.52 40.3398 173.96C40.8838 173.4 41.5558 173.12 42.3558 173.12C43.0758 173.12 43.6518 173.376 44.0838 173.888V173.432C44.0838 173.328 44.1238 173.252 44.2038 173.204C44.2838 173.156 44.3918 173.148 44.5278 173.18L45.5718 173.396ZM42.6558 178.544C42.9838 178.544 43.2798 178.408 43.5438 178.136C43.8158 177.864 43.9518 177.484 43.9518 176.996V175.196C43.9518 174.796 43.7958 174.428 43.4838 174.092C43.1718 173.748 42.8118 173.576 42.4038 173.576C41.9558 173.576 41.5958 173.76 41.3238 174.128C41.0598 174.488 40.9198 174.984 40.9038 175.616C40.8878 176.4 41.0438 177.084 41.3718 177.668C41.6998 178.252 42.1278 178.544 42.6558 178.544ZM47.7093 172.244C47.4133 172.244 47.1733 172.16 46.9893 171.992C46.8053 171.824 46.7133 171.608 46.7133 171.344C46.7133 171.08 46.8053 170.864 46.9893 170.696C47.1733 170.528 47.4133 170.444 47.7093 170.444C47.9973 170.444 48.2293 170.528 48.4053 170.696C48.5893 170.864 48.6813 171.08 48.6813 171.344C48.6813 171.608 48.5893 171.824 48.4053 171.992C48.2293 172.16 47.9973 172.244 47.7093 172.244ZM46.8213 179C46.6533 179 46.5693 178.94 46.5693 178.82V178.772C46.5693 178.7 46.6413 178.596 46.7853 178.46C46.9373 178.324 47.0133 178.168 47.0133 177.992V174.848C47.0133 174.664 46.9373 174.492 46.7853 174.332C46.6413 174.172 46.5693 174.068 46.5693 174.02V173.984C46.5693 173.92 46.6413 173.848 46.7853 173.768L47.9853 173.168C48.1213 173.112 48.2253 173.108 48.2973 173.156C48.3773 173.196 48.4173 173.268 48.4173 173.372V177.992C48.4173 178.168 48.4973 178.324 48.6573 178.46C48.8253 178.596 48.9093 178.7 48.9093 178.772V178.82C48.9093 178.94 48.8213 179 48.6453 179H46.8213ZM51.9531 179.12C51.4331 179.12 51.0211 178.956 50.7171 178.628C50.4211 178.292 50.2731 177.808 50.2731 177.176V173.828H49.5891C49.4531 173.828 49.3851 173.76 49.3851 173.624V173.456C49.3851 173.312 49.4531 173.24 49.5891 173.24H49.9611C50.2651 173.24 50.5091 173.136 50.6931 172.928C50.8851 172.72 51.0051 172.436 51.0531 172.076C51.0771 171.9 51.1571 171.812 51.2931 171.812H51.4731C51.6251 171.812 51.7011 171.9 51.7011 172.076L51.7131 173.24H53.2251C53.2891 173.24 53.3411 173.26 53.3811 173.3C53.4211 173.34 53.4411 173.392 53.4411 173.456V173.624C53.4411 173.76 53.3691 173.828 53.2251 173.828H51.7131V177.188C51.7131 177.468 51.7771 177.688 51.9051 177.848C52.0331 178 52.1971 178.076 52.3971 178.076C52.8771 178.076 53.1611 177.868 53.2491 177.452C53.2811 177.388 53.3291 177.348 53.3931 177.332C53.4571 177.316 53.5131 177.324 53.5611 177.356C53.6171 177.388 53.6451 177.44 53.6451 177.512C53.6451 177.944 53.4891 178.32 53.1771 178.64C52.8731 178.96 52.4651 179.12 51.9531 179.12ZM60.295 173.684C60.295 173.732 60.255 173.792 60.175 173.864C60.095 173.928 60.015 174.016 59.935 174.128C59.855 174.24 59.815 174.372 59.815 174.524V178.004C59.815 178.18 59.891 178.34 60.043 178.484C60.195 178.628 60.271 178.732 60.271 178.796V178.832C60.271 178.944 60.203 179 60.067 179H58.819C58.667 179 58.591 178.924 58.591 178.772V178.292C58.199 178.844 57.623 179.12 56.863 179.12C56.095 179.12 55.435 178.844 54.883 178.292C54.339 177.74 54.067 177.012 54.067 176.108C54.067 175.236 54.335 174.52 54.871 173.96C55.415 173.4 56.087 173.12 56.887 173.12C57.583 173.12 58.151 173.372 58.591 173.876V173.432C58.591 173.328 58.631 173.252 58.711 173.204C58.791 173.156 58.899 173.148 59.035 173.18L60.079 173.396C60.223 173.436 60.295 173.52 60.295 173.648V173.684ZM57.187 178.664C57.515 178.664 57.807 178.528 58.063 178.256C58.327 177.984 58.459 177.604 58.459 177.116V175.196C58.459 174.796 58.307 174.428 58.003 174.092C57.699 173.748 57.343 173.576 56.935 173.576C56.487 173.576 56.127 173.76 55.855 174.128C55.583 174.488 55.443 174.984 55.435 175.616C55.419 176.456 55.571 177.172 55.891 177.764C56.219 178.356 56.651 178.656 57.187 178.664ZM61.3743 179C61.2063 179 61.1223 178.94 61.1223 178.82V178.784C61.1223 178.704 61.1943 178.596 61.3383 178.46C61.4903 178.324 61.5663 178.172 61.5663 178.004V171.68C61.5663 171.488 61.4903 171.316 61.3383 171.164C61.1943 171.012 61.1223 170.912 61.1223 170.864V170.828C61.1223 170.756 61.1903 170.684 61.3263 170.612L62.5383 170.012C62.6743 169.956 62.7783 169.952 62.8503 170C62.9303 170.04 62.9703 170.108 62.9703 170.204V178.004C62.9703 178.172 63.0503 178.328 63.2103 178.472C63.3783 178.608 63.4623 178.712 63.4623 178.784V178.82C63.4623 178.94 63.3743 179 63.1983 179H61.3743ZM66.312 179C66.144 179 66.06 178.944 66.06 178.832V178.796C66.06 178.716 66.144 178.612 66.312 178.484C66.48 178.348 66.6 178.188 66.672 178.004L69.192 171.536C69.248 171.392 69.192 171.228 69.024 171.044C68.856 170.86 68.772 170.74 68.772 170.684V170.648C68.772 170.536 68.848 170.48 69 170.48H70.872C71.024 170.48 71.1 170.536 71.1 170.648V170.684C71.1 170.748 71.052 170.82 70.956 170.9C70.86 170.98 70.776 171.072 70.704 171.176C70.64 171.272 70.632 171.38 70.68 171.5L73.524 178.004C73.596 178.18 73.716 178.336 73.884 178.472C74.052 178.608 74.136 178.716 74.136 178.796V178.832C74.136 178.944 74.052 179 73.884 179H71.844C71.676 179 71.592 178.944 71.592 178.832V178.796C71.592 178.74 71.624 178.684 71.688 178.628C71.752 178.572 71.816 178.52 71.88 178.472C71.944 178.424 71.996 178.36 72.036 178.28C72.084 178.2 72.084 178.108 72.036 178.004L71.556 176.816H67.932L67.488 178.004C67.432 178.14 67.44 178.256 67.512 178.352C67.592 178.44 67.68 178.52 67.776 178.592C67.88 178.664 67.932 178.732 67.932 178.796V178.832C67.932 178.944 67.844 179 67.668 179H66.312ZM68.172 176.168H71.328L69.684 172.124L68.172 176.168ZM77.8648 173.12C78.2088 173.12 78.4768 173.216 78.6688 173.408C78.8688 173.6 78.9688 173.84 78.9688 174.128C78.9688 174.632 78.7608 174.884 78.3448 174.884C78.1688 174.884 78.0328 174.836 77.9368 174.74C77.8408 174.644 77.7808 174.536 77.7568 174.416C77.7328 174.296 77.6768 174.188 77.5888 174.092C77.5008 173.996 77.3808 173.948 77.2288 173.948C76.9648 173.948 76.7608 174.092 76.6168 174.38C76.4728 174.668 76.4008 175.02 76.4008 175.436V178.004C76.4008 178.18 76.4928 178.336 76.6768 178.472C76.8608 178.608 76.9528 178.712 76.9528 178.784V178.832C76.9528 178.944 76.8688 179 76.7008 179H74.8408C74.6728 179 74.5888 178.944 74.5888 178.832V178.784C74.5888 178.712 74.6648 178.608 74.8168 178.472C74.9688 178.336 75.0448 178.18 75.0448 178.004V174.776C75.0448 174.592 74.9568 174.436 74.7808 174.308C74.6128 174.172 74.5288 174.068 74.5288 173.996V173.96C74.5288 173.872 74.6008 173.788 74.7448 173.708L75.9208 173.168C76.1528 173.056 76.2688 173.124 76.2688 173.372V174.308C76.5408 173.516 77.0728 173.12 77.8648 173.12ZM81.6601 179.12C81.1401 179.12 80.7281 178.956 80.4241 178.628C80.1281 178.292 79.9801 177.808 79.9801 177.176V173.828H79.2961C79.1601 173.828 79.0921 173.76 79.0921 173.624V173.456C79.0921 173.312 79.1601 173.24 79.2961 173.24H79.6681C79.9721 173.24 80.2161 173.136 80.4001 172.928C80.5921 172.72 80.7121 172.436 80.7601 172.076C80.7841 171.9 80.8641 171.812 81.0001 171.812H81.1801C81.3321 171.812 81.4081 171.9 81.4081 172.076L81.4201 173.24H82.9321C82.9961 173.24 83.0481 173.26 83.0881 173.3C83.1281 173.34 83.1481 173.392 83.1481 173.456V173.624C83.1481 173.76 83.0761 173.828 82.9321 173.828H81.4201V177.188C81.4201 177.468 81.4841 177.688 81.6121 177.848C81.7401 178 81.9041 178.076 82.1041 178.076C82.5841 178.076 82.8681 177.868 82.9561 177.452C82.9881 177.388 83.0361 177.348 83.1001 177.332C83.1641 177.316 83.2201 177.324 83.2681 177.356C83.3241 177.388 83.3521 177.44 83.3521 177.512C83.3521 177.944 83.1961 178.32 82.8841 178.64C82.5801 178.96 82.1721 179.12 81.6601 179.12Z" fill="black"/>
<rect x="2.5" y="2.5" width="108" height="205" rx="54" stroke="#2927A6" stroke-width="5"/>
</svg>
