<svg width="137" height="127" viewBox="0 0 137 127" fill="none" xmlns="http://www.w3.org/2000/svg">
<rect x="0.382408" y="0.38253" width="121.645" height="121.645" rx="60.8223" fill="#FF9C00" stroke="#08182F" stroke-width="0.76506"/>
<rect x="14.1539" y="4.97286" width="121.645" height="121.645" rx="60.8223" fill="#2927A6" stroke="black" stroke-width="0.76506"/>
<path d="M87.2167 82.6265V82.6265C82.6027 83.0879 78.7432 86.3303 77.493 90.7955L76.8884 92.9548M76.8884 92.9548L76.4764 91.2382C75.3498 86.5441 71.3657 83.0841 66.56 82.6265V82.6265M76.8884 92.9548V70.3855" stroke="white" stroke-width="1.14759"/>
<path d="M39.8574 55.1626C39.8574 56.5948 40.6975 57.5312 42.3225 57.903L43.9612 58.2748C44.9114 58.4952 45.3383 58.9909 45.3383 59.7759C45.3383 60.7674 44.4983 61.3871 43.1763 61.3871C41.9231 61.3871 41.1244 60.7812 41.0968 59.831H39.7197C39.8023 61.5386 41.1519 62.599 43.1763 62.599C45.297 62.599 46.6879 61.456 46.6879 59.6657C46.6879 58.2611 45.8616 57.3797 44.2366 57.0079L42.5979 56.6223C41.6614 56.402 41.207 55.92 41.207 55.1213C41.207 54.1435 42.0195 53.5101 43.2727 53.5101C44.3881 53.5101 45.0904 54.0884 45.1593 55.08H46.5226C46.4125 53.3586 45.1868 52.2982 43.2864 52.2982C41.2345 52.2982 39.8574 53.455 39.8574 55.1626ZM47.7228 59.0736C47.7228 61.1943 49.031 62.599 51.0141 62.599C52.639 62.599 53.8922 61.6212 54.1539 60.1615H52.8594C52.6253 60.9602 51.9367 61.4422 51.0141 61.4422C49.7884 61.4422 49.0035 60.5058 49.0035 59.0598C49.0035 57.6001 49.8435 56.6636 51.0691 56.6636C51.9367 56.6636 52.6253 57.1181 52.8456 57.9719H54.1401C53.906 56.4708 52.7217 55.5069 51.0278 55.5069C49.0586 55.5069 47.7228 56.9666 47.7228 59.0736ZM59.3756 55.6446C59.1139 55.5895 58.9211 55.5619 58.687 55.5619C57.7644 55.5619 57.0896 56.0302 56.8142 56.7325L56.7315 55.7134H55.5197V62.4337H56.8142V58.867C56.8142 57.5725 57.5716 56.8289 58.7972 56.8289H59.3756V55.6446ZM59.9069 59.0598C59.9069 61.1392 61.3942 62.599 63.4186 62.599C65.4292 62.599 66.9164 61.1392 66.9164 59.0598C66.9164 56.9804 65.4292 55.5206 63.4186 55.5206C61.3942 55.5206 59.9069 56.9804 59.9069 59.0598ZM61.2152 59.0598C61.2152 57.6551 62.1103 56.6774 63.4186 56.6774C64.7131 56.6774 65.6219 57.6551 65.6219 59.0598C65.6219 60.4645 64.7131 61.4422 63.4186 61.4422C62.1103 61.4422 61.2152 60.4645 61.2152 59.0598ZM69.6714 62.4337V52.2982H68.3769V62.4337H69.6714ZM72.899 62.4337V52.2982H71.6045V62.4337H72.899ZM82.0817 62.4337C85.0287 62.4337 87.0118 60.4231 87.0118 57.4624C87.0118 54.4878 85.0012 52.4772 82.0266 52.4772H78.7904V62.4337H82.0817ZM81.9302 53.7166C84.2025 53.7166 85.6071 55.1488 85.6071 57.4624C85.6071 59.7484 84.2025 61.1805 81.9853 61.1805H80.14V53.7166H81.9302ZM88.0677 59.0598C88.0677 61.1392 89.555 62.599 91.5794 62.599C93.5899 62.599 95.0772 61.1392 95.0772 59.0598C95.0772 56.9804 93.5899 55.5206 91.5794 55.5206C89.555 55.5206 88.0677 56.9804 88.0677 59.0598ZM89.376 59.0598C89.376 57.6551 90.2711 56.6774 91.5794 56.6774C92.8738 56.6774 93.7827 57.6551 93.7827 59.0598C93.7827 60.4645 92.8738 61.4422 91.5794 61.4422C90.2711 61.4422 89.376 60.4645 89.376 59.0598ZM97.6468 62.4337H98.9275L100.098 58.8395C100.346 58.027 100.47 57.5863 100.539 57.2558C100.608 57.6276 100.745 58.1509 100.966 58.8257L102.136 62.4337H103.362L105.662 55.6997H104.312L103.183 59.1975C102.99 59.7897 102.866 60.2579 102.756 60.795C102.646 60.313 102.425 59.528 102.315 59.1975L101.2 55.6997H99.8777L98.7485 59.1975C98.597 59.6382 98.418 60.2028 98.3078 60.795C98.1839 60.2028 98.0462 59.6933 97.8947 59.1975L96.7792 55.6997H95.4434L97.6468 62.4337ZM108.066 62.4337V58.867C108.066 57.5588 108.768 56.6912 109.98 56.6912C110.971 56.6912 111.605 57.242 111.605 58.6054V62.4337H112.899V58.3162C112.899 56.5948 112.087 55.5069 110.31 55.5069C109.36 55.5069 108.506 55.9613 108.079 56.7325L107.942 55.6997H106.771V62.4337H108.066Z" fill="white"/>
</svg>
